<svg width="14" height="14" fill="none" xmlns="http://www.w3.org/2000/svg"><path d="M1.835 5.667H3.12a9.816 9.816 0 00-.052 2.667H1.835a5.343 5.343 0 010-2.667zm.545-1.333A5.36 5.36 0 014.168 2.48a9.725 9.725 0 00-.75 1.853H2.38zM6.015.405A6.668 6.668 0 007 13.666 6.667 6.667 0 106.017.407V.404h-.002zm.318 1.384v2.543H4.816A8.09 8.09 0 015.403 3c.32-.571.65-.972.93-1.21zm0 3.877v2.667h-1.92a8.428 8.428 0 01.06-2.667h1.86zm1.334 2.667V5.667H9.51l.025.148c.13.807.157 1.662.035 2.519H7.667zM6.333 9.667v2.625l-.013-.001a7.119 7.119 0 01-1.59-2.624h1.604zm-2.268 1.787A5.361 5.361 0 012.38 9.667h.953c.17.603.41 1.203.732 1.787zm5.845.017c.327-.59.57-1.195.74-1.804h.97a5.36 5.36 0 01-1.71 1.804zm-.655-1.804a7.118 7.118 0 01-1.588 2.62v-2.62h1.588zm1.66-1.333a9.83 9.83 0 00-.053-2.667h1.303a5.342 5.342 0 010 2.667h-1.25zm-.35-4a9.714 9.714 0 00-.757-1.87 5.36 5.36 0 011.812 1.87h-1.054zm-2.898-2.53c.277.24.6.636.913 1.196.219.39.42.84.588 1.333H7.667V1.804z" fill="#161513" fill-opacity=".7"/></svg>