<svg width="14" height="14" fill="none" xmlns="http://www.w3.org/2000/svg"><path opacity=".6" d="M7.002 3.41a3.583 3.583 0 00-3.59 3.588 3.583 3.583 0 003.59 3.59 3.583 3.583 0 003.588-3.59A3.583 3.583 0 007.002 3.41zm0 5.922a2.337 2.337 0 01-2.334-2.334 2.335 2.335 0 012.334-2.333 2.335 2.335 0 012.333 2.333 2.337 2.337 0 01-2.333 2.334zm4.572-6.069a.835.835 0 01-.837.837.837.837 0 11.837-.837zm2.377.85c-.053-1.122-.31-2.115-1.13-2.933C12 .362 11.008.105 9.886.05c-1.155-.066-4.619-.066-5.774 0C2.994.101 2 .357 1.18 1.176.358 1.995.105 2.988.05 4.109c-.066 1.156-.066 4.62 0 5.775.052 1.122.308 2.115 1.13 2.933.821.818 1.811 1.075 2.933 1.13 1.155.066 4.619.066 5.774 0 1.122-.052 2.115-.308 2.933-1.13.819-.818 1.075-1.811 1.13-2.933.066-1.155.066-4.616 0-5.771zm-1.493 7.011a2.362 2.362 0 01-1.33 1.33c-.922.366-3.108.282-4.126.282-1.019 0-3.208.081-4.126-.281a2.362 2.362 0 01-1.33-1.33c-.366-.922-.282-3.108-.282-4.127 0-1.018-.081-3.207.281-4.125a2.362 2.362 0 011.33-1.33c.922-.366 3.108-.282 4.127-.282 1.018 0 3.207-.081 4.125.281a2.362 2.362 0 011.33 1.33c.366.922.282 3.108.282 4.126 0 1.019.084 3.208-.281 4.126z" fill="#fff"/></svg>