<svg width="16" height="14" fill="none" xmlns="http://www.w3.org/2000/svg"><path d="M0 4.4c0-.725.289-.578 1.8-3.5.1-.4.4-.8.8-.9h10.7c.5.1.7.5.9.9 1.122 2.182 1.747 2.843 1.801 3.5v.1c-.1.7-.7 1.3-1.5 1.3s-1.4-.4-1.6-1.2c0-.1 0-.1-.1-.2-.2.8-.7 1.3-1.4 1.3-.9.1-1.5-.4-1.8-1.4-.2 1-.9 1.3-1.5 1.4-.4.1-.8 0-1.1-.3-.3-.3-.5-.6-.6-1-.4.9-.8 1.3-1.5 1.4-.9 0-1.501-.5-1.7-1.4v.1C3 5.2 2.6 5.6 1.9 5.7c-.6.2-1.2-.1-1.6-.6-.2-.2-.2-.5-.3-.7zM3.4 14c-.2-.1-.3-.1-.5-.2-.6-.3-.9-.8-.9-1.5V7.137c0-.584.812-.837 1-.837v5c0 .5.4.7.8.7h8.601c.4 0 .6-.2.6-.6V6.29c.539 0 1.004.54 1.004.849L14 8.057v4.26c0 .917-.54 1.683-1.483 1.683H3.4z" fill="#999"/><path d="M8 11h-.986s-1.08-.809-2.914-2.1C4 8.8 4 8.8 4 8.7V8c1.3 1 2.7 2 4 3z" fill="#999"/></svg>