<svg width="14" height="12" fill="none" xmlns="http://www.w3.org/2000/svg"><path opacity=".6" d="M12.164 3.354c.008.115.008.231.008.346 0 3.523-2.68 7.581-7.58 7.581A7.529 7.529 0 01.5 10.085c.214.025.42.033.643.033 1.246 0 2.393-.42 3.308-1.138A2.67 2.67 0 011.96 7.132a2.841 2.841 0 001.204-.049 2.665 2.665 0 01-2.136-2.615v-.033a2.69 2.69 0 001.204.338 2.662 2.662 0 01-.825-3.564 7.573 7.573 0 005.494 2.788 3.008 3.008 0 01-.066-.61A2.663 2.663 0 019.499.723c.768 0 1.46.321 1.947.841a5.247 5.247 0 001.691-.643 2.657 2.657 0 01-1.171 1.468 5.342 5.342 0 001.534-.413 5.727 5.727 0 01-1.336 1.378z" fill="#fff"/></svg>