<svg width="253" height="18" fill="none" xmlns="http://www.w3.org/2000/svg"><g clip-path="url(#clip0_4209_2489)" fill="#fff"><path d="M53.257 11.899h8.15L57.1 4.949l-7.904 12.548h-3.604l9.623-15.061a2.3 2.3 0 013.745-.027l9.645 15.088h-3.604l-1.698-2.806h-8.247l-1.799-2.796v.004zm37.393 2.793V1.611h-3.06v14.37a1.476 1.476 0 00.451 1.051 1.546 1.546 0 001.114.47h13.914l1.815-2.805H90.65v-.007zm-50.54-2.336a5.372 5.372 0 100-10.745H26.743v15.886H29.8V4.42h10.109a2.572 2.572 0 010 5.142l-8.62-.008 9.128 7.943h4.432l-6.128-5.144h1.388v.003zm-32.162 5.14h9.235a7.944 7.944 0 000-15.888H7.948a7.944 7.944 0 100 15.889zm9.024-2.795H8.15a5.142 5.142 0 110-10.284h8.822a5.143 5.143 0 010 10.284zm58.014 2.796h9.433l1.785-2.796h-11.01a5.143 5.143 0 010-10.284h8.957l1.807-2.809h-10.97a7.945 7.945 0 000 15.889h-.002zm37.362-2.793a5.147 5.147 0 01-4.951-3.741h13.057l1.799-2.8h-14.856a5.14 5.14 0 014.951-3.743h8.964l1.792-2.809h-10.96a7.946 7.946 0 000 15.889h9.429l1.791-2.796h-11.016z"/><path fill-rule="evenodd" clip-rule="evenodd" d="M248.529 17.48v-1.188h-.041a3.126 3.126 0 01-1.375 1.16 4.527 4.527 0 01-1.899.4 5.135 5.135 0 01-2.821-.803 5.827 5.827 0 01-1.148-.953 5.654 5.654 0 01-.816-1.158 6.17 6.17 0 01-.299-5.055 5.533 5.533 0 011.126-1.863 5.17 5.17 0 013.919-1.698 5.354 5.354 0 011.88.35c.579.213 1.089.58 1.477 1.06V0h3.865v17.48h-3.868zm-.157-6.606a2.004 2.004 0 00-.867-.889 2.689 2.689 0 00-2.617 0 2.076 2.076 0 00-.865.889c-.198.379-.301.8-.3 1.228a2.348 2.348 0 00.68 1.735c.44.461 1.038.691 1.793.691.756 0 1.354-.23 1.795-.69a2.345 2.345 0 00.68-1.736 2.643 2.643 0 00-.305-1.228h.006zm-13.008 6.298a7.887 7.887 0 01-3.256.68 8.025 8.025 0 01-3.267-.678 6.601 6.601 0 01-1.34-.85 5.546 5.546 0 01-1.049-1.147 5.354 5.354 0 01-.889-3.08A5.474 5.474 0 01226.452 9a5.786 5.786 0 012.385-2.003 8.032 8.032 0 013.268-.667 7.876 7.876 0 013.255.669c.483.212.932.493 1.334.834.406.341.765.736 1.066 1.173.601.92.91 2 .888 3.099a5.335 5.335 0 01-.888 3.077 5.882 5.882 0 01-2.4 1.992h.004zm-1.076-6.298a2.086 2.086 0 00-.868-.889 2.707 2.707 0 00-2.627 0 2.002 2.002 0 00-.866.889c-.199.379-.302.8-.3 1.228a2.348 2.348 0 00.681 1.735c.441.461 1.041.691 1.799.691.771 0 1.379-.23 1.819-.69a2.347 2.347 0 00.662-1.736c0-.428-.104-.85-.303-1.228h.003zm-12.944 6.298a7.892 7.892 0 01-3.256.68 8.025 8.025 0 01-3.267-.678 6.599 6.599 0 01-1.34-.85 5.625 5.625 0 01-1.05-1.147 5.345 5.345 0 01-.888-3.08A5.473 5.473 0 01212.431 9a5.8 5.8 0 012.384-2.003 8.027 8.027 0 013.266-.667 7.89 7.89 0 013.257.669 5.52 5.52 0 011.334.834 5.98 5.98 0 011.064 1.173c.601.92.91 2 .889 3.099a5.344 5.344 0 01-.889 3.077 5.882 5.882 0 01-2.395 1.992h.003zm-1.076-6.298a2.09 2.09 0 00-.869-.889 2.7 2.7 0 00-2.625 0c-.376.197-.68.508-.868.889-.199.379-.301.8-.299 1.228a2.348 2.348 0 00.681 1.735c.44.461 1.04.691 1.8.691.759 0 1.366-.23 1.819-.69a2.344 2.344 0 00.662-1.736c0-.428-.104-.85-.304-1.228h.003zm-15.17-3.114h4.545v3.496h-4.545v6.224h-4.164V1.61h9.179v3.495h-5.015V7.76zm-10.657 8.532h-.043a3.2 3.2 0 01-1.377 1.16 4.67 4.67 0 01-1.906.4 5.17 5.17 0 01-2.821-.803 5.333 5.333 0 01-1.969-2.111 6.035 6.035 0 01-.703-2.862 5.8 5.8 0 01.403-2.194 5.43 5.43 0 012.858-3.115 5.234 5.234 0 012.194-.446c.648.001 1.29.118 1.897.346a3.872 3.872 0 011.481 1.063V6.667h3.863v10.814h-3.877v-1.19zm-.157-5.418a2.085 2.085 0 00-.87-.889 2.712 2.712 0 00-2.631 0 2 2 0 00-.87.889c-.203.377-.306.8-.299 1.228a2.336 2.336 0 00.663 1.735c.441.461 1.049.691 1.821.691s1.38-.23 1.824-.69c.434-.435.651-1.014.652-1.736a2.624 2.624 0 00-.29-1.228zM183.036 4.37a2.127 2.127 0 01-2.174 0 1.955 1.955 0 01-.784-.784 2.18 2.18 0 01-.301-1.07c.007-.38.11-.751.301-1.08.184-.325.456-.592.784-.77a2.125 2.125 0 012.174 0c.327.179.599.446.783.77.196.326.3.7.301 1.08a2.179 2.179 0 01-1.076 1.85l-.008.004zm-29.151 13.11h-3.86V0h3.863l-.003 17.48zm-13.924-8.852h8.246a23.38 23.38 0 01-.146 2.35 8.758 8.758 0 01-.47 1.982 7.713 7.713 0 01-1.024 1.929c-1.49 2.073-3.684 3.11-6.582 3.111a9.34 9.34 0 01-4.425-1.047 7.29 7.29 0 01-3.01-2.97 8.688 8.688 0 01-1.085-4.355 9.92 9.92 0 01.627-3.494 7.417 7.417 0 011.779-2.711 7.91 7.91 0 012.749-1.724 9.805 9.805 0 013.515-.607 9.494 9.494 0 013.03.47 7.023 7.023 0 012.43 1.493 8.102 8.102 0 011.737 2.47l-3.934 1.644a3.876 3.876 0 00-1.332-1.86 3.407 3.407 0 00-2.117-.671 3.62 3.62 0 00-2.24.71 4.695 4.695 0 00-1.411 1.88 6.306 6.306 0 00-.003 4.835 4.504 4.504 0 001.455 1.854 3.74 3.74 0 002.269.71c.556.007 1.107-.1 1.621-.313.471-.204.88-.528 1.186-.94.313-.454.495-.985.527-1.535h-3.389l-.003-3.211zm18.933-1.632a8.025 8.025 0 013.261-.674 7.89 7.89 0 013.257.67 5.52 5.52 0 011.334.833c.405.342.763.737 1.064 1.174.601.92.911 2 .89 3.099a5.344 5.344 0 01-.89 3.076 5.88 5.88 0 01-2.398 1.998 7.885 7.885 0 01-3.257.68 8.02 8.02 0 01-3.266-.678 6.599 6.599 0 01-1.34-.85 5.596 5.596 0 01-1.05-1.147 5.355 5.355 0 01-.889-3.08A5.483 5.483 0 01156.499 9a5.794 5.794 0 012.395-2.003zm1.467 6.848c.442.46 1.041.69 1.799.69.757 0 1.364-.23 1.819-.69a2.346 2.346 0 00.662-1.735 2.63 2.63 0 00-.301-1.23 2.078 2.078 0 00-.868-.888 2.707 2.707 0 00-2.626 0c-.376.197-.68.508-.868.889-.198.38-.3.8-.299 1.229-.01.319.045.637.163.934.117.298.293.568.519.794v.007zm13.936-5.41h.04c.711-1.271 1.882-1.906 3.514-1.906h.734v3.666a3.516 3.516 0 00-1.622-.352c-.978 0-1.671.29-2.077.867-.392.549-.588 1.349-.589 2.401v4.37h-3.864V6.666h3.864v1.767zm9.584 9.044h-3.859V6.664h3.865l-.006 10.814z"/></g><defs><clipPath id="clip0_4209_2489"><path fill="#fff" d="M0 0h252.393v18H0z"/></clipPath></defs></svg>