<svg width="83" height="80" fill="none" xmlns="http://www.w3.org/2000/svg"><path d="M40.865 61.76L1 27.202h80L40.865 61.76zM81 27.201L44.938 2.677a7 7 0 00-7.873 0L1 27.2h80z" fill="#45AE49"/><g filter="url(#filter0_d)"><path d="M72.385 69.682v-55.57a2.914 2.914 0 00-2.914-2.914H13.767a2.914 2.914 0 00-2.913 2.914v55.57h61.531z" fill="#fff"/></g><rect x="19.468" y="19.812" width="44.303" height="3.692" rx="1.846" fill="#EBEBEA"/><rect x="19.468" y="27.196" width="44.303" height="3.692" rx="1.846" fill="#EBEBEA"/><rect x="19.468" y="34.58" width="23.382" height="3.692" rx="1.846" fill="#EBEBEA"/><path d="M40.998 60.237L1 27v52h80V27L40.998 60.237z" fill="#5AC15E"/><path d="M81 79L45.456 49.675a7 7 0 00-8.909 0L1 79h80z" fill="#64DB69"/><defs><filter id="filter0_d" x=".854" y="1.198" width="81.531" height="78.484" filterUnits="userSpaceOnUse" color-interpolation-filters="sRGB"><feFlood flood-opacity="0" result="BackgroundImageFix"/><feColorMatrix in="SourceAlpha" values="0 0 0 0 0 0 0 0 0 0 0 0 0 0 0 0 0 0 127 0"/><feOffset/><feGaussianBlur stdDeviation="5"/><feColorMatrix values="0 0 0 0 0 0 0 0 0 0 0 0 0 0 0 0 0 0 0.1 0"/><feBlend in2="BackgroundImageFix" result="effect1_dropShadow"/><feBlend in="SourceGraphic" in2="effect1_dropShadow" result="shape"/></filter></defs></svg>